<svg width="203" height="122" viewBox="0 0 203 122" fill="none" xmlns="http://www.w3.org/2000/svg">
<rect y="54.4775" width="50.247" height="34.4528" rx="17.2264" fill="#4093FF"/>
<path fill-rule="evenodd" clip-rule="evenodd" d="M141.718 0L93.2277 3.63647e-05H59.4956C54.9601 3.63647e-05 51.2833 3.67679 51.2833 8.2123C51.2833 12.7478 54.9601 16.4246 59.4956 16.4246H88.1288C90.9448 16.4246 93.2277 18.7074 93.2276 21.5235C93.2276 24.3394 90.9448 26.6222 88.1288 26.6222H39.6243C35.0035 26.6222 31.2576 30.3681 31.2576 34.9889C31.2576 39.6098 35.0035 43.3557 39.6243 43.3557H87.5305C90.6769 43.3557 93.2276 45.9063 93.2276 49.0527C93.2276 52.1991 90.6769 54.7497 87.5306 54.7497H72.8627C63.4236 54.7497 55.7718 62.4015 55.7718 71.8406C55.7718 81.2796 63.4236 88.9315 72.8627 88.9315H87.8759C90.8316 88.9315 93.2276 91.3275 93.2276 94.2831C93.2277 97.2388 90.8316 99.6349 87.8759 99.6349H49.4201C43.3937 99.6349 38.5082 104.52 38.5082 110.547C38.5082 116.573 43.3937 121.459 49.4201 121.459H93.2277L141.718 121.459C175.258 121.459 202.447 94.2691 202.447 60.7293C202.447 27.1894 175.258 -2.51528e-05 141.718 0ZM151 70L139.669 70L148.605 46.8844C150.198 42.7633 148.148 38.1311 144.027 36.5381C139.906 34.9451 135.274 36.9945 133.681 41.1156L121.59 72.3945C119.057 78.9469 123.892 86 130.917 86L151 86C155.418 86 159 82.4183 159 78C159 73.5817 155.418 70 151 70Z" fill="#4093FF"/>
</svg>
